{
    "asset": {
        "generator": "https://3dviewer.net",
        "version": "2.0"
    },
    "scene": 0,
    "scenes": [
        {
            "nodes": [
                0
            ]
        }
    ],
    "nodes": [
        {
            "mesh": 0
        }
    ],
    "materials": [
        {
            "name": "orange",
            "pbrMetallicRoughness": {
                "baseColorFactor": [
                    0.7991027380100881,
                    0.29613827078752575,
                    0.038204371589236,
                    1
                ]
            },
            "emissiveFactor": [
                0,
                0,
                0
            ],
            "doubleSided": true,
            "alphaMode": "OPAQUE"
        }
    ],
    "meshes": [
        {
            "name": "Coin3",
            "primitives": [
                {
                    "attributes": {
                        "POSITION": 1,
                        "NORMAL": 2,
                        "TEXCOORD_0": 3
                    },
                    "mode": 4,
                    "material": 0,
                    "indices": 0
                }
            ]
        }
    ],
    "buffers": [
        {
            "uri": "model.bin",
            "byteLength": 393984
        }
    ],
    "bufferViews": [
        {
            "buffer": 0,
            "byteOffset": 0,
            "byteLength": 43776,
            "target": 34963
        },
        {
            "buffer": 0,
            "byteOffset": 43776,
            "byteLength": 131328,
            "target": 34962
        },
        {
            "buffer": 0,
            "byteOffset": 175104,
            "byteLength": 131328,
            "target": 34962
        },
        {
            "buffer": 0,
            "byteOffset": 306432,
            "byteLength": 87552,
            "target": 34962
        }
    ],
    "accessors": [
        {
            "bufferView": 0,
            "byteOffset": 0,
            "componentType": 5125,
            "count": 10944,
            "type": "SCALAR"
        },
        {
            "bufferView": 1,
            "byteOffset": 0,
            "componentType": 5126,
            "count": 10944,
            "min": [
                -51.21858596801758,
                -12.652486801147461,
                -51.22053527832031
            ],
            "max": [
                51.22600555419922,
                11.314947128295898,
                51.242218017578125
            ],
            "type": "VEC3"
        },
        {
            "bufferView": 2,
            "byteOffset": 0,
            "componentType": 5126,
            "count": 10944,
            "type": "VEC3"
        },
        {
            "bufferView": 3,
            "byteOffset": 0,
            "componentType": 5126,
            "count": 10944,
            "type": "VEC2"
        }
    ]
}